<svg xmlns="http://www.w3.org/2000/svg" version="1.1" xmlns:xlink="http://www.w3.org/1999/xlink"
    xmlns:svgjs="http://svgjs.com/svgjs" width="1920" height="1080" preserveAspectRatio="none" viewBox="0 0 1920 1080">
    <g mask="url(&quot;#SvgjsMask14581&quot;)" fill="none">
    </g>
    <defs>
        <mask id="SvgjsMask14581">
            <rect width="1920" height="1080" fill="#ffffff" />
        </mask>
        <pattern x="0" y="0" width="9.94" height="9.94" patternUnits="userSpaceOnUse" id="SvgjsPattern14583">
            <path d="M4.97 1L4.97 8.94M1 4.97L8.94 4.97" stroke="rgba(178, 157, 198, 1)" fill="none"
                stroke-width="2.02" />
        </pattern>
        <clipPath id="SvgjsClipPath14582">
            <circle r="44.73" cx="568.6" cy="339.02" />
        </clipPath>
        <pattern x="0" y="0" width="8.86" height="8.86" patternUnits="userSpaceOnUse" id="SvgjsPattern14585">
            <path d="M0 8.86L4.43 0L8.86 8.86" stroke="rgba(178, 157, 198, 1)" fill="none" />
        </pattern>
        <clipPath id="SvgjsClipPath14584">
            <circle r="124.03999999999999" cx="158.34" cy="308.92" />
        </clipPath>
        <pattern x="0" y="0" width="6" height="6" patternUnits="userSpaceOnUse" id="SvgjsPattern14587">
            <path d="M3 1L3 5M1 3L5 3" stroke="rgba(178, 157, 198, 1)" fill="none" stroke-width="1" />
        </pattern>
        <clipPath id="SvgjsClipPath14586">
            <circle r="135" cx="1251.11" cy="868.32" />
        </clipPath>
        <pattern x="0" y="0" width="6" height="6" patternUnits="userSpaceOnUse" id="SvgjsPattern14589">
            <path d="M0 6L3 0L6 6" stroke="rgba(178, 157, 198, 1)" fill="none" />
        </pattern>
        <clipPath id="SvgjsClipPath14588">
            <circle r="15" cx="520.91" cy="369.59" />
        </clipPath>
        <pattern x="0" y="0" width="6" height="6" patternUnits="userSpaceOnUse" id="SvgjsPattern14591">
            <path d="M0 6L3 0L6 6" stroke="rgba(178, 157, 198, 1)" fill="none" />
        </pattern>
        <clipPath id="SvgjsClipPath14590">
            <circle r="177" cx="264.26" cy="393.3" />
        </clipPath>
        <pattern x="0" y="0" width="9.88" height="9.88" patternUnits="userSpaceOnUse" id="SvgjsPattern14593">
            <path d="M4.94 1L4.94 8.88M1 4.94L8.88 4.94" stroke="rgba(178, 157, 198, 1)" fill="none"
                stroke-width="3.09" />
        </pattern>
        <clipPath id="SvgjsClipPath14592">
            <circle r="24.7" cx="1487.41" cy="841.63" />
        </clipPath>
    </defs>
    <g mask="url(&quot;#SvgjsMask1630&quot;)" fill="none">
        <g mask="url(&quot;#SvgjsMask1631&quot;)">
            <path
                d="M1831.5 536.5L1794.5 573.5L1757.5 573.5L1720.5 536.5L1683.5 536.5M1942.5 536.5L1905.5 536.5L1868.5 536.5L1831.5 536.5L1794.5 536.5"
                stroke="rgba(179, 158, 199, 1)" stroke-width="6.17" />
            <path
                d="M1785.25 536.5 a9.25 9.25 0 1 0 18.5 0 a9.25 9.25 0 1 0 -18.5 0zM1674.25 536.5 a9.25 9.25 0 1 0 18.5 0 a9.25 9.25 0 1 0 -18.5 0z"
                fill="rgba(179, 158, 199, 1)" />
            <path d="M1905.5 573.5L1868.5 610.5M1942.5 573.5L1905.5 573.5L1868.5 573.5" stroke="rgba(179, 158, 199, 1)"
                stroke-width="6.17" />
            <path
                d="M1859.25 573.5 a9.25 9.25 0 1 0 18.5 0 a9.25 9.25 0 1 0 -18.5 0zM1859.25 610.5 a9.25 9.25 0 1 0 18.5 0 a9.25 9.25 0 1 0 -18.5 0z"
                fill="rgba(179, 158, 199, 1)" />
            <path
                d="M1498.5 499.5L1461.5 462.5L1424.5 462.5L1387.5 462.5L1350.5 462.5M1572.5 499.5L1535.5 462.5L1498.5 462.5L1461.5 425.5M1683.5 499.5L1646.5 462.5L1609.5 462.5M1942.5 499.5L1905.5 499.5L1868.5 499.5L1831.5 499.5L1794.5 499.5L1757.5 499.5L1720.5 499.5L1683.5 499.5L1646.5 499.5L1609.5 499.5L1572.5 499.5L1535.5 499.5L1498.5 499.5L1461.5 499.5L1424.5 499.5"
                stroke="rgba(179, 158, 199, 1)" stroke-width="6.17" />
            <path
                d="M1415.25 499.5 a9.25 9.25 0 1 0 18.5 0 a9.25 9.25 0 1 0 -18.5 0zM1341.25 462.5 a9.25 9.25 0 1 0 18.5 0 a9.25 9.25 0 1 0 -18.5 0zM1452.25 425.5 a9.25 9.25 0 1 0 18.5 0 a9.25 9.25 0 1 0 -18.5 0zM1600.25 462.5 a9.25 9.25 0 1 0 18.5 0 a9.25 9.25 0 1 0 -18.5 0z"
                fill="rgba(179, 158, 199, 1)" />
            <path d="M1942.5 462.5L1905.5 462.5L1868.5 462.5L1831.5 462.5" stroke="rgba(179, 158, 199, 1)"
                stroke-width="6.17" />
            <path d="M1822.25 462.5 a9.25 9.25 0 1 0 18.5 0 a9.25 9.25 0 1 0 -18.5 0z" fill="rgba(179, 158, 199, 1)" />
            <path d="M1942.5 647.5L1905.5 647.5" stroke="rgba(179, 158, 199, 1)" stroke-width="6.17" />
            <path d="M1896.25 647.5 a9.25 9.25 0 1 0 18.5 0 a9.25 9.25 0 1 0 -18.5 0z" fill="rgba(179, 158, 199, 1)" />
            <path d="M1942.5 425.5L1905.5 425.5L1868.5 425.5L1831.5 425.5L1794.5 425.5" stroke="rgba(179, 158, 199, 1)"
                stroke-width="6.17" />
            <path d="M1785.25 425.5 a9.25 9.25 0 1 0 18.5 0 a9.25 9.25 0 1 0 -18.5 0z" fill="rgba(179, 158, 199, 1)" />
            <path
                d="M1683.5 684.5L1646.5 647.5L1609.5 647.5M1757.5 684.5L1720.5 647.5L1683.5 647.5L1646.5 610.5M1572.5 721.5L1535.5 758.5M1942.5 684.5L1905.5 684.5L1868.5 684.5L1831.5 684.5L1794.5 684.5L1757.5 684.5L1720.5 684.5L1683.5 684.5L1646.5 684.5L1609.5 721.5L1572.5 721.5L1535.5 721.5L1498.5 721.5L1461.5 721.5L1424.5 721.5"
                stroke="rgba(179, 158, 199, 1)" stroke-width="6.17" />
            <path
                d="M1415.25 721.5 a9.25 9.25 0 1 0 18.5 0 a9.25 9.25 0 1 0 -18.5 0zM1600.25 647.5 a9.25 9.25 0 1 0 18.5 0 a9.25 9.25 0 1 0 -18.5 0zM1637.25 610.5 a9.25 9.25 0 1 0 18.5 0 a9.25 9.25 0 1 0 -18.5 0zM1526.25 758.5 a9.25 9.25 0 1 0 18.5 0 a9.25 9.25 0 1 0 -18.5 0z"
                fill="rgba(179, 158, 199, 1)" />
            <path d="M1942.5 388.5L1905.5 388.5" stroke="rgba(179, 158, 199, 1)" stroke-width="6.17" />
            <path d="M1896.25 388.5 a9.25 9.25 0 1 0 18.5 0 a9.25 9.25 0 1 0 -18.5 0z" fill="rgba(179, 158, 199, 1)" />
            <path d="M1942.5 721.5L1905.5 721.5L1868.5 721.5L1831.5 721.5L1794.5 721.5L1757.5 721.5L1720.5 721.5"
                stroke="rgba(179, 158, 199, 1)" stroke-width="6.17" />
            <path d="M1711.25 721.5 a9.25 9.25 0 1 0 18.5 0 a9.25 9.25 0 1 0 -18.5 0z" fill="rgba(179, 158, 199, 1)" />
            <path
                d="M1461.5 277.5L1424.5 314.5L1387.5 351.5L1350.5 351.5L1313.5 351.5M1831.5 351.5L1794.5 388.5M1350.5 314.5L1313.5 277.5L1276.5 277.5L1239.5 277.5L1202.5 314.5L1165.5 314.5L1128.5 314.5M1572.5 314.5L1535.5 314.5M1942.5 351.5L1905.5 351.5L1868.5 351.5L1831.5 351.5L1794.5 351.5L1757.5 351.5L1720.5 351.5L1683.5 351.5L1646.5 351.5L1609.5 351.5L1572.5 314.5L1535.5 277.5L1498.5 277.5L1461.5 277.5L1424.5 277.5L1387.5 314.5L1350.5 314.5L1313.5 314.5"
                stroke="rgba(179, 158, 199, 1)" stroke-width="6.17" />
            <path
                d="M1304.25 314.5 a9.25 9.25 0 1 0 18.5 0 a9.25 9.25 0 1 0 -18.5 0zM1304.25 351.5 a9.25 9.25 0 1 0 18.5 0 a9.25 9.25 0 1 0 -18.5 0zM1785.25 388.5 a9.25 9.25 0 1 0 18.5 0 a9.25 9.25 0 1 0 -18.5 0zM1119.25 314.5 a9.25 9.25 0 1 0 18.5 0 a9.25 9.25 0 1 0 -18.5 0zM1526.25 314.5 a9.25 9.25 0 1 0 18.5 0 a9.25 9.25 0 1 0 -18.5 0z"
                fill="rgba(179, 158, 199, 1)" />
            <path
                d="M1868.5 758.5L1831.5 795.5L1794.5 795.5L1757.5 795.5M1942.5 758.5L1905.5 758.5L1868.5 758.5L1831.5 758.5L1794.5 758.5"
                stroke="rgba(179, 158, 199, 1)" stroke-width="6.17" />
            <path
                d="M1785.25 758.5 a9.25 9.25 0 1 0 18.5 0 a9.25 9.25 0 1 0 -18.5 0zM1748.25 795.5 a9.25 9.25 0 1 0 18.5 0 a9.25 9.25 0 1 0 -18.5 0z"
                fill="rgba(179, 158, 199, 1)" />
            <path
                d="M1942.5 314.5L1905.5 314.5L1868.5 314.5L1831.5 314.5L1794.5 314.5L1757.5 314.5L1720.5 314.5L1683.5 314.5L1646.5 314.5L1609.5 314.5L1572.5 277.5L1535.5 240.5"
                stroke="rgba(179, 158, 199, 1)" stroke-width="6.17" />
            <path d="M1526.25 240.5 a9.25 9.25 0 1 0 18.5 0 a9.25 9.25 0 1 0 -18.5 0z" fill="rgba(179, 158, 199, 1)" />
            <path
                d="M1831.5 832.5L1794.5 869.5L1757.5 869.5L1720.5 869.5M1905.5 795.5L1868.5 795.5M1720.5 832.5L1683.5 832.5L1646.5 832.5L1609.5 832.5M1942.5 795.5L1905.5 795.5L1868.5 832.5L1831.5 832.5L1794.5 832.5L1757.5 832.5L1720.5 832.5L1683.5 795.5"
                stroke="rgba(179, 158, 199, 1)" stroke-width="6.17" />
            <path
                d="M1674.25 795.5 a9.25 9.25 0 1 0 18.5 0 a9.25 9.25 0 1 0 -18.5 0zM1711.25 869.5 a9.25 9.25 0 1 0 18.5 0 a9.25 9.25 0 1 0 -18.5 0zM1859.25 795.5 a9.25 9.25 0 1 0 18.5 0 a9.25 9.25 0 1 0 -18.5 0zM1600.25 832.5 a9.25 9.25 0 1 0 18.5 0 a9.25 9.25 0 1 0 -18.5 0z"
                fill="rgba(179, 158, 199, 1)" />
            <path
                d="M1646.5 277.5L1609.5 240.5L1572.5 203.5M1868.5 277.5L1831.5 240.5L1794.5 240.5M1905.5 277.5L1868.5 240.5M1942.5 277.5L1905.5 277.5L1868.5 277.5L1831.5 277.5L1794.5 277.5L1757.5 277.5L1720.5 277.5L1683.5 277.5L1646.5 277.5L1609.5 277.5L1572.5 240.5L1535.5 203.5L1498.5 203.5"
                stroke="rgba(179, 158, 199, 1)" stroke-width="6.17" />
            <path
                d="M1489.25 203.5 a9.25 9.25 0 1 0 18.5 0 a9.25 9.25 0 1 0 -18.5 0zM1563.25 203.5 a9.25 9.25 0 1 0 18.5 0 a9.25 9.25 0 1 0 -18.5 0zM1785.25 240.5 a9.25 9.25 0 1 0 18.5 0 a9.25 9.25 0 1 0 -18.5 0zM1859.25 240.5 a9.25 9.25 0 1 0 18.5 0 a9.25 9.25 0 1 0 -18.5 0z"
                fill="rgba(179, 158, 199, 1)" />
        </g>
    </g>
    <defs>
        <mask id="SvgjsMask1630">
            <rect width="1920" height="1080" fill="#ffffff" />
        </mask>
        <mask id="SvgjsMask1631">
            <rect width="1920" height="1080" fill="white" />
            <path
                d="M1789.87 536.5 a4.63 4.63 0 1 0 9.26 0 a4.63 4.63 0 1 0 -9.26 0zM1678.87 536.5 a4.63 4.63 0 1 0 9.26 0 a4.63 4.63 0 1 0 -9.26 0z"
                fill="black" />
            <path
                d="M1863.87 573.5 a4.63 4.63 0 1 0 9.26 0 a4.63 4.63 0 1 0 -9.26 0zM1863.87 610.5 a4.63 4.63 0 1 0 9.26 0 a4.63 4.63 0 1 0 -9.26 0z"
                fill="black" />
            <path
                d="M1419.87 499.5 a4.63 4.63 0 1 0 9.26 0 a4.63 4.63 0 1 0 -9.26 0zM1345.87 462.5 a4.63 4.63 0 1 0 9.26 0 a4.63 4.63 0 1 0 -9.26 0zM1456.87 425.5 a4.63 4.63 0 1 0 9.26 0 a4.63 4.63 0 1 0 -9.26 0zM1604.87 462.5 a4.63 4.63 0 1 0 9.26 0 a4.63 4.63 0 1 0 -9.26 0z"
                fill="black" />
            <path d="M1826.87 462.5 a4.63 4.63 0 1 0 9.26 0 a4.63 4.63 0 1 0 -9.26 0z" fill="black" />
            <path d="M1900.87 647.5 a4.63 4.63 0 1 0 9.26 0 a4.63 4.63 0 1 0 -9.26 0z" fill="black" />
            <path d="M1789.87 425.5 a4.63 4.63 0 1 0 9.26 0 a4.63 4.63 0 1 0 -9.26 0z" fill="black" />
            <path
                d="M1419.87 721.5 a4.63 4.63 0 1 0 9.26 0 a4.63 4.63 0 1 0 -9.26 0zM1604.87 647.5 a4.63 4.63 0 1 0 9.26 0 a4.63 4.63 0 1 0 -9.26 0zM1641.87 610.5 a4.63 4.63 0 1 0 9.26 0 a4.63 4.63 0 1 0 -9.26 0zM1530.87 758.5 a4.63 4.63 0 1 0 9.26 0 a4.63 4.63 0 1 0 -9.26 0z"
                fill="black" />
            <path d="M1900.87 388.5 a4.63 4.63 0 1 0 9.26 0 a4.63 4.63 0 1 0 -9.26 0z" fill="black" />
            <path d="M1715.87 721.5 a4.63 4.63 0 1 0 9.26 0 a4.63 4.63 0 1 0 -9.26 0z" fill="black" />
            <path
                d="M1308.87 314.5 a4.63 4.63 0 1 0 9.26 0 a4.63 4.63 0 1 0 -9.26 0zM1308.87 351.5 a4.63 4.63 0 1 0 9.26 0 a4.63 4.63 0 1 0 -9.26 0zM1789.87 388.5 a4.63 4.63 0 1 0 9.26 0 a4.63 4.63 0 1 0 -9.26 0zM1123.87 314.5 a4.63 4.63 0 1 0 9.26 0 a4.63 4.63 0 1 0 -9.26 0zM1530.87 314.5 a4.63 4.63 0 1 0 9.26 0 a4.63 4.63 0 1 0 -9.26 0z"
                fill="black" />
            <path
                d="M1789.87 758.5 a4.63 4.63 0 1 0 9.26 0 a4.63 4.63 0 1 0 -9.26 0zM1752.87 795.5 a4.63 4.63 0 1 0 9.26 0 a4.63 4.63 0 1 0 -9.26 0z"
                fill="black" />
            <path d="M1530.87 240.5 a4.63 4.63 0 1 0 9.26 0 a4.63 4.63 0 1 0 -9.26 0z" fill="black" />
            <path
                d="M1678.87 795.5 a4.63 4.63 0 1 0 9.26 0 a4.63 4.63 0 1 0 -9.26 0zM1715.87 869.5 a4.63 4.63 0 1 0 9.26 0 a4.63 4.63 0 1 0 -9.26 0zM1863.87 795.5 a4.63 4.63 0 1 0 9.26 0 a4.63 4.63 0 1 0 -9.26 0zM1604.87 832.5 a4.63 4.63 0 1 0 9.26 0 a4.63 4.63 0 1 0 -9.26 0z"
                fill="black" />
            <path
                d="M1493.87 203.5 a4.63 4.63 0 1 0 9.26 0 a4.63 4.63 0 1 0 -9.26 0zM1567.87 203.5 a4.63 4.63 0 1 0 9.26 0 a4.63 4.63 0 1 0 -9.26 0zM1789.87 240.5 a4.63 4.63 0 1 0 9.26 0 a4.63 4.63 0 1 0 -9.26 0zM1863.87 240.5 a4.63 4.63 0 1 0 9.26 0 a4.63 4.63 0 1 0 -9.26 0z"
                fill="black" />
        </mask>
    </defs>
</svg>